<?xml version="1.0" standalone="no"?>
<svg xmlns:xlink="http://www.w3.org/1999/xlink" id="wave" style="transform:rotate(0deg); transition: 0.3s" viewBox="0 0 1440 490" version="1.1" xmlns="http://www.w3.org/2000/svg"><defs><linearGradient id="sw-gradient-0" x1="0" x2="0" y1="1" y2="0"><stop stop-color="rgba(41, 84, 30, 0.8901960784313725)" offset="0%"/><stop stop-color="rgba(163, 161, 100, 1)" offset="100%"/></linearGradient></defs><path style="transform:translate(0, 0px); opacity:1" fill="url(#sw-gradient-0)" d="M0,343L80,343C160,343,320,343,480,359.3C640,376,800,408,960,359.3C1120,310,1280,180,1440,106.2C1600,33,1760,16,1920,49C2080,82,2240,163,2400,212.3C2560,261,2720,278,2880,277.7C3040,278,3200,261,3360,261.3C3520,261,3680,278,3840,294C4000,310,4160,327,4320,302.2C4480,278,4640,212,4800,171.5C4960,131,5120,114,5280,114.3C5440,114,5600,131,5760,122.5C5920,114,6080,82,6240,130.7C6400,180,6560,310,6720,302.2C6880,294,7040,147,7200,122.5C7360,98,7520,196,7680,269.5C7840,343,8000,392,8160,367.5C8320,343,8480,245,8640,171.5C8800,98,8960,49,9120,98C9280,147,9440,294,9600,334.8C9760,376,9920,310,10080,285.8C10240,261,10400,278,10560,253.2C10720,229,10880,163,11040,187.8C11200,212,11360,327,11440,383.8L11520,441L11520,490L11440,490C11360,490,11200,490,11040,490C10880,490,10720,490,10560,490C10400,490,10240,490,10080,490C9920,490,9760,490,9600,490C9440,490,9280,490,9120,490C8960,490,8800,490,8640,490C8480,490,8320,490,8160,490C8000,490,7840,490,7680,490C7520,490,7360,490,7200,490C7040,490,6880,490,6720,490C6560,490,6400,490,6240,490C6080,490,5920,490,5760,490C5600,490,5440,490,5280,490C5120,490,4960,490,4800,490C4640,490,4480,490,4320,490C4160,490,4000,490,3840,490C3680,490,3520,490,3360,490C3200,490,3040,490,2880,490C2720,490,2560,490,2400,490C2240,490,2080,490,1920,490C1760,490,1600,490,1440,490C1280,490,1120,490,960,490C800,490,640,490,480,490C320,490,160,490,80,490L0,490Z"/><defs><linearGradient id="sw-gradient-1" x1="0" x2="0" y1="1" y2="0"><stop stop-color="rgba(41, 84, 30, 0.8901960784313725)" offset="0%"/><stop stop-color="rgba(163, 161, 100, 1)" offset="100%"/></linearGradient></defs><path style="transform:translate(0, 50px); opacity:0.9" fill="url(#sw-gradient-1)" d="M0,147L80,155.2C160,163,320,180,480,204.2C640,229,800,261,960,228.7C1120,196,1280,98,1440,65.3C1600,33,1760,65,1920,106.2C2080,147,2240,196,2400,220.5C2560,245,2720,245,2880,269.5C3040,294,3200,343,3360,351.2C3520,359,3680,327,3840,294C4000,261,4160,229,4320,245C4480,261,4640,327,4800,326.7C4960,327,5120,261,5280,220.5C5440,180,5600,163,5760,130.7C5920,98,6080,49,6240,49C6400,49,6560,98,6720,155.2C6880,212,7040,278,7200,294C7360,310,7520,278,7680,236.8C7840,196,8000,147,8160,171.5C8320,196,8480,294,8640,302.2C8800,310,8960,229,9120,212.3C9280,196,9440,245,9600,277.7C9760,310,9920,327,10080,310.3C10240,294,10400,245,10560,236.8C10720,229,10880,261,11040,294C11200,327,11360,359,11440,375.7L11520,392L11520,490L11440,490C11360,490,11200,490,11040,490C10880,490,10720,490,10560,490C10400,490,10240,490,10080,490C9920,490,9760,490,9600,490C9440,490,9280,490,9120,490C8960,490,8800,490,8640,490C8480,490,8320,490,8160,490C8000,490,7840,490,7680,490C7520,490,7360,490,7200,490C7040,490,6880,490,6720,490C6560,490,6400,490,6240,490C6080,490,5920,490,5760,490C5600,490,5440,490,5280,490C5120,490,4960,490,4800,490C4640,490,4480,490,4320,490C4160,490,4000,490,3840,490C3680,490,3520,490,3360,490C3200,490,3040,490,2880,490C2720,490,2560,490,2400,490C2240,490,2080,490,1920,490C1760,490,1600,490,1440,490C1280,490,1120,490,960,490C800,490,640,490,480,490C320,490,160,490,80,490L0,490Z"/><defs><linearGradient id="sw-gradient-2" x1="0" x2="0" y1="1" y2="0"><stop stop-color="rgba(41, 84, 30, 0.8901960784313725)" offset="0%"/><stop stop-color="rgba(163, 161, 100, 1)" offset="100%"/></linearGradient></defs><path style="transform:translate(0, 100px); opacity:0.8" fill="url(#sw-gradient-2)" d="M0,343L80,285.8C160,229,320,114,480,89.8C640,65,800,131,960,196C1120,261,1280,327,1440,318.5C1600,310,1760,229,1920,212.3C2080,196,2240,245,2400,236.8C2560,229,2720,163,2880,179.7C3040,196,3200,294,3360,302.2C3520,310,3680,229,3840,236.8C4000,245,4160,343,4320,334.8C4480,327,4640,212,4800,171.5C4960,131,5120,163,5280,147C5440,131,5600,65,5760,65.3C5920,65,6080,131,6240,163.3C6400,196,6560,196,6720,196C6880,196,7040,196,7200,204.2C7360,212,7520,229,7680,204.2C7840,180,8000,114,8160,138.8C8320,163,8480,278,8640,318.5C8800,359,8960,327,9120,294C9280,261,9440,229,9600,196C9760,163,9920,131,10080,163.3C10240,196,10400,294,10560,285.8C10720,278,10880,163,11040,171.5C11200,180,11360,310,11440,375.7L11520,441L11520,490L11440,490C11360,490,11200,490,11040,490C10880,490,10720,490,10560,490C10400,490,10240,490,10080,490C9920,490,9760,490,9600,490C9440,490,9280,490,9120,490C8960,490,8800,490,8640,490C8480,490,8320,490,8160,490C8000,490,7840,490,7680,490C7520,490,7360,490,7200,490C7040,490,6880,490,6720,490C6560,490,6400,490,6240,490C6080,490,5920,490,5760,490C5600,490,5440,490,5280,490C5120,490,4960,490,4800,490C4640,490,4480,490,4320,490C4160,490,4000,490,3840,490C3680,490,3520,490,3360,490C3200,490,3040,490,2880,490C2720,490,2560,490,2400,490C2240,490,2080,490,1920,490C1760,490,1600,490,1440,490C1280,490,1120,490,960,490C800,490,640,490,480,490C320,490,160,490,80,490L0,490Z"/></svg>