<?xml version="1.0" encoding="UTF-8"?>
<svg xmlns="http://www.w3.org/2000/svg" xmlns:xlink="http://www.w3.org/1999/xlink" width="810pt" height="809.999993pt" viewBox="0 0 810 809.999993" version="1.2">
<defs>
<filter id="alpha" filterUnits="objectBoundingBox" x="0%" y="0%" width="100%" height="100%">
  <feColorMatrix type="matrix" in="SourceGraphic" values="0 0 0 0 1 0 0 0 0 1 0 0 0 0 1 0 0 0 1 0"/>
</filter>
<mask id="mask0">
  <g filter="url(#alpha)">
<rect x="0" y="0" width="810" height="809.999993" style="fill:rgb(0%,0%,0%);fill-opacity:0.8;stroke:none;"/>
  </g>
</mask>
<clipPath id="clip2">
  <path d="M 2.78125 0.480469 L 783.214844 0.480469 L 783.214844 423 L 2.78125 423 Z M 2.78125 0.480469 "/>
</clipPath>
<clipPath id="clip1">
  <rect x="0" y="0" width="784" height="810"/>
</clipPath>
<g id="surface5" clip-path="url(#clip1)">
<path style=" stroke:none;fill-rule:nonzero;fill:rgb(94.898987%,94.898987%,94.898987%);fill-opacity:1;" d="M 710.324219 417.910156 L 392.195312 98.617188 L 75.167969 417.910156 L 75.167969 809.511719 L 710.324219 809.511719 Z M 710.324219 417.910156 "/>
<g clip-path="url(#clip2)" clip-rule="nonzero">
<path style=" stroke:none;fill-rule:nonzero;fill:rgb(62.348938%,50.19989%,35.688782%);fill-opacity:1;" d="M 82.183594 311.113281 L 82.183594 61.726562 L 214.675781 61.726562 L 214.675781 178.671875 L 392.933594 0.488281 L 393.117188 0.671875 L 393.300781 0.488281 L 783.214844 390.242188 L 751.289062 422.339844 L 392.746094 61.726562 L 34.203125 422.339844 L 2.464844 390.796875 Z M 82.183594 311.113281 "/>
</g>
<path style=" stroke:none;fill-rule:nonzero;fill:rgb(62.348938%,50.19989%,35.688782%);fill-opacity:1;" d="M 284.058594 360.363281 C 285.71875 301.335938 333.699219 253.929688 392.933594 253.929688 C 451.980469 253.929688 500.144531 301.335938 501.804688 360.363281 L 501.804688 376.960938 L 284.058594 376.960938 Z M 284.058594 360.363281 "/>
<path style=" stroke:none;fill-rule:nonzero;fill:rgb(100%,100%,100%);fill-opacity:1;" d="M 482.984375 358.515625 C 481.875 335.644531 472.09375 314.246094 455.855469 298.199219 C 438.878906 281.597656 416.550781 272.375 392.746094 272.375 C 369.128906 272.375 346.613281 281.597656 329.636719 298.199219 C 313.214844 314.246094 303.617188 335.644531 302.511719 358.515625 Z M 482.984375 358.515625 "/>
<path style=" stroke:none;fill-rule:nonzero;fill:rgb(62.348938%,50.19989%,35.688782%);fill-opacity:1;" d="M 344.769531 480.257812 L 150.089844 480.257812 L 150.089844 809.511719 L 344.769531 809.511719 Z M 344.769531 480.257812 "/>
<path style=" stroke:none;fill-rule:nonzero;fill:rgb(100%,100%,100%);fill-opacity:1;" d="M 326.316406 498.703125 L 168.542969 498.703125 L 168.542969 809.511719 L 326.316406 809.511719 Z M 326.316406 498.703125 "/>
<path style=" stroke:none;fill-rule:nonzero;fill:rgb(62.348938%,50.19989%,35.688782%);fill-opacity:1;" d="M 415.304688 700.359375 L 635.449219 700.359375 L 635.449219 480.304688 L 415.304688 480.304688 Z M 415.304688 700.359375 "/>
<path style=" stroke:none;fill-rule:nonzero;fill:rgb(100%,100%,100%);fill-opacity:1;" d="M 617.089844 681.960938 L 617.089844 498.796875 L 433.847656 498.796875 L 433.847656 681.960938 Z M 617.089844 681.960938 "/>
<path style=" stroke:none;fill-rule:nonzero;fill:rgb(62.348938%,50.19989%,35.688782%);fill-opacity:1;" d="M 426.148438 579.679688 L 516.199219 579.679688 L 516.199219 489.664062 L 534.652344 489.664062 L 534.652344 579.679688 L 624.703125 579.679688 L 624.703125 598.125 L 534.652344 598.125 L 534.652344 688.324219 L 516.199219 688.324219 L 516.199219 598.125 L 426.148438 598.125 Z M 426.148438 579.679688 "/>
<path style=" stroke:none;fill-rule:nonzero;fill:rgb(63.919067%,63.139343%,39.219666%);fill-opacity:1;" d="M 251.949219 615.464844 L 247.335938 620.074219 L 242.722656 615.464844 C 236.082031 609.007812 225.5625 609.007812 219.105469 615.648438 C 212.644531 622.289062 212.644531 632.804688 219.289062 639.257812 L 247.707031 667.296875 L 275.753906 638.890625 C 282.214844 632.25 282.214844 621.734375 275.570312 615.28125 C 268.925781 608.824219 258.410156 608.824219 251.949219 615.464844 Z M 251.949219 615.464844 "/>
<path style=" stroke:none;fill-rule:nonzero;fill:rgb(62.348938%,50.19989%,35.688782%);fill-opacity:1;" d="M 401.972656 262.96875 L 383.519531 262.96875 L 383.519531 363.867188 L 401.972656 363.867188 Z M 401.972656 262.96875 "/>
</g>
</defs>
<g id="surface1">
<use xlink:href="#surface5" transform="matrix(1,0,0,1,12,0.000000000000039746)" mask="url(#mask0)"/>
</g>
</svg>
